<svg width="41" height="40" viewBox="0 0 41 40" fill="none" xmlns="http://www.w3.org/2000/svg">
<mask id="mask0_2351_3234" style="mask-type:luminance" maskUnits="userSpaceOnUse" x="0" y="0" width="41" height="41">
<path d="M0.5 0H40.5V40.0022H0.5V0Z" fill="white"/>
</mask>
<g mask="url(#mask0_2351_3234)">
<path d="M40.5 30.0011C40.5 24.4785 36.0237 20.0022 30.5011 20.0022H20.6933C20.5689 20.0022 20.4511 20.0511 20.3645 20.1377L1.29529 39.2069C1.00205 39.5002 1.20865 40.0022 1.62407 40.0022H30.5011C36.0237 40.0022 40.5 35.5237 40.5 30.0011ZM20.3067 20.0022H10.5011C4.97629 20.0022 0.5 15.5237 0.5 10.0011C0.5 4.47851 4.97629 0 10.5011 0H39.3759C39.7914 0 40.0002 0.502055 39.7069 0.795291L20.6377 19.8645C20.5489 19.9511 20.4311 20.0022 20.3067 20.0022Z" fill="#1971B8"/>
</g>
<mask id="mask1_2351_3234" style="mask-type:luminance" maskUnits="userSpaceOnUse" x="12" y="0" width="29" height="21">
<path d="M12.3569 0H40.2232V20.6042H12.3569V0Z" fill="white"/>
</mask>
<g mask="url(#mask1_2351_3234)">
<path d="M20.3701 20.1311C20.4546 20.0467 20.5701 20.0022 20.6923 20.0022C20.5723 20.0022 20.4568 20.0489 20.3701 20.1311ZM20.3079 20.0022H12.8882H20.3057C20.4301 20.0022 20.5479 19.9511 20.6367 19.8645L39.7059 0.795291C39.9992 0.502055 39.7903 0 39.3749 0H39.3771C39.7903 0 39.9992 0.502055 39.7059 0.795291L20.6367 19.8645C20.5479 19.9534 20.4301 20.0022 20.3079 20.0022Z" fill="#B2B2B2"/>
</g>
<mask id="mask2_2351_3234" style="mask-type:luminance" maskUnits="userSpaceOnUse" x="0" y="0" width="41" height="41">
<path d="M0.984375 0H40.2246V40.0022H0.984375V0Z" fill="white"/>
</mask>
<g mask="url(#mask2_2351_3234)">
<path d="M8.11122 40.0022H1.62449C1.20908 40.0022 1.00248 39.5002 1.29571 39.2069L20.3649 20.1377C20.3671 20.1355 20.3694 20.1333 20.3716 20.1311C20.4582 20.0489 20.5737 20.0022 20.6937 20.0022H28.1112L8.11122 40.0022ZM20.3072 20.0022H12.8896L32.8918 0H39.3764C39.7918 0 40.0006 0.502055 39.7074 0.795291L20.6382 19.8645C20.5493 19.9511 20.4316 20.0022 20.3072 20.0022Z" fill="#004A74"/>
</g>
</svg>
